<?xml version="1.0" encoding="utf-8"?>
<!-- Generator: Adobe Illustrator 23.0.6, SVG Export Plug-In . SVG Version: 6.00 Build 0)  -->
<svg version="1.1" id="Layer_1" xmlns="http://www.w3.org/2000/svg" xmlns:xlink="http://www.w3.org/1999/xlink" x="0px" y="0px"
	 width="45.6px" height="45.3px" viewBox="0 0 45.6 45.3" style="enable-background:new 0 0 45.6 45.3;" xml:space="preserve">
<style type="text/css">
	.st0{fill:#008ACB;}
	.st1{fill:#FFFFFF;}
</style>
<g>
	<path class="st0" d="M44.3,23c0,12-9.7,21.7-21.7,21.7S0.9,35,0.9,23S10.6,1.3,22.6,1.3S44.3,11,44.3,23"/>
	<path class="st1" d="M19.4,7.4c-1.5,0-2.6,1.2-2.6,2.6s1.2,2.6,2.6,2.6c1.5,0,2.6-1.2,2.6-2.6S20.8,7.4,19.4,7.4"/>
	<path class="st1" d="M25.9,7.4c-1.5,0-2.6,1.2-2.6,2.6s1.2,2.6,2.6,2.6c1.5,0,2.6-1.2,2.6-2.6S27.3,7.4,25.9,7.4"/>
	<path class="st1" d="M12.8,13.9c-1.5,0-2.6,1.2-2.6,2.6s1.2,2.6,2.6,2.6s2.6-1.2,2.6-2.6S14.3,13.9,12.8,13.9"/>
	<path class="st1" d="M25.9,20.4c-1.5,0-2.6,1.2-2.6,2.6c0,1.5,1.2,2.6,2.6,2.6c1.5,0,2.6-1.2,2.6-2.6
		C28.5,21.6,27.3,20.4,25.9,20.4"/>
	<path class="st1" d="M12.8,20.4c-0.6,0-1.2,0.2-1.6,0.6c-2.2,1.5-4.9,2.1-4.9,2.1s2.7,0.5,4.9,2.1c0.5,0.3,1,0.6,1.6,0.6
		c1.5,0,2.6-1.2,2.6-2.6C15.5,21.6,14.3,20.4,12.8,20.4"/>
	<path class="st1" d="M32.4,13.9c-1.5,0-2.6,1.2-2.6,2.6s1.2,2.6,2.6,2.6c1.5,0,2.6-1.2,2.6-2.6S33.8,13.9,32.4,13.9"/>
	<path class="st1" d="M19.4,20.4c-1.5,0-2.6,1.2-2.6,2.6c0,1.5,1.2,2.6,2.6,2.6c1.5,0,2.6-1.2,2.6-2.6C22,21.6,20.8,20.4,19.4,20.4"
		/>
	<path class="st1" d="M32.4,20.4c-1.5,0-2.6,1.2-2.6,2.6c0,1.5,1.2,2.6,2.6,2.6c1.5,0,2.6-1.2,2.6-2.6C35,21.6,33.8,20.4,32.4,20.4"
		/>
	<path class="st1" d="M12.8,26.9c-1.5,0-2.6,1.2-2.6,2.6c0,1.5,1.2,2.6,2.6,2.6s2.6-1.2,2.6-2.6C15.5,28.1,14.3,26.9,12.8,26.9"/>
	<path class="st1" d="M25.9,33.4c-1.5,0-2.6,1.2-2.6,2.6s1.2,2.6,2.6,2.6c1.5,0,2.6-1.2,2.6-2.6S27.3,33.4,25.9,33.4"/>
	<path class="st1" d="M19.4,33.4c-1.5,0-2.6,1.2-2.6,2.6c0,1.5,1.2,2.6,2.6,2.6c1.5,0,2.6-1.2,2.6-2.6S20.8,33.4,19.4,33.4"/>
</g>
</svg>
