<?xml version="1.0" encoding="utf-8"?>
<!-- Generator: Adobe Illustrator 23.0.6, SVG Export Plug-In . SVG Version: 6.00 Build 0)  -->
<svg version="1.1" xmlns="http://www.w3.org/2000/svg" xmlns:xlink="http://www.w3.org/1999/xlink" x="0px" y="0px" width="415.9px"
	 height="133.3px" viewBox="0 0 415.9 133.3" style="enable-background:new 0 0 415.9 133.3;" xml:space="preserve">
<style type="text/css">
	.st0{fill:#999999;}
	.st1{font-family:'MyriadPro-Bold';}
	.st2{font-size:4.2976px;}
</style>
<g id="Layer_1">
</g>
<g id="Laag_2">
	<g>
		<text transform="matrix(1 0 0 1 363.7841 58.4927)" class="st0 st1 st2">NEDERLAND</text>
		<path class="st0" d="M356.5,26c0,3.5,0,6.9,0,10.4c0,1.3,0,1.3-1.4,1.4c-2.1,0.2-4.3,0.4-6.3,1c-8.8,2.5-15.2,8-19,16.4
			c-3.1,7-3.3,14.3-0.7,21.5c2.1,5.9,5.8,10.6,11,14.1c6.4,4.3,13.4,5.9,21,4.7c6.5-1,12-4,16.6-8.8c3.7-3.9,6.1-8.5,7.2-13.8
			c0.4-1.7,0.5-3.5,0.6-5.3c0-0.7,0.2-0.8,0.9-0.8c7.2,0,14.5,0,21.7,0c0.7,0,0.9,0.2,0.9,0.9c-0.1,6.9-1.5,13.5-4.2,19.9
			c-1.7,4-3.9,7.8-6.6,11.3c-4.6,6-10.3,10.8-17,14.4c-8.2,4.4-17,6.4-26.3,6.1c-9.4-0.3-18-2.9-26-7.9
			c-7.7-4.8-13.9-11.2-18.3-19.2c-6.1-11.1-7.9-23-5.6-35.4c2-10.6,6.9-19.7,14.6-27.3c6.1-6,13.3-10.3,21.5-12.8
			c4.7-1.5,9.5-2.2,14.5-2.3c0.8,0,1,0.2,1,1C356.5,18.9,356.5,22.4,356.5,26z M355.4,105.4c0-0.2,0-0.4,0-0.5
			c-0.4-2.2-2.8-3.5-5.1-2.7c-1.8,0.6-2.7,2-3,3.8c-0.3,1.8,0.2,3.5,1.8,4.6c2,1.4,4.9,0.7,5.7-1.5c0.1-0.3,0-0.9-0.1-0.9
			c-0.4-0.1-0.9-0.4-1.3,0.3c-0.5,1.2-1.4,1.7-2.3,1.5c-1.2-0.2-2.1-1-2.2-2.2c0-1,0.1-2.1,0.5-3.1c0.3-0.9,1.2-1.4,2.2-1.4
			c0.9,0,1.7,0.4,2,1.2C353.9,105.5,354.5,105.5,355.4,105.4z M356.4,111.3c1.1,0.3,1.6,0.1,1.8-0.6c0.5-2.1,0.1-1.6,2.2-1.9
			c0.1,0,0.2,0,0.3,0c1-0.3,1.5,0.1,1.9,1.1c0.4,1.2,0.8,1.3,2,0.7c0-0.1,0-0.2-0.1-0.3c-1.2-2.4-2.5-4.9-3.6-7.3
			c-0.3-0.6-0.7-0.6-1.3-0.6c-0.6,0-0.8,0.3-0.9,0.9c-0.2,0.9-0.5,1.7-0.8,2.6C357.4,107.7,356.9,109.5,356.4,111.3z M342.3,106.6
			c0-2,0-3.9,0-5.8c0-1.2-0.1-1.4-1.4-1.6c0,0.1-0.1,0.2-0.1,0.3c-0.1,2.8-0.2,5.6-0.2,8.4c0,0.3,0.5,0.7,0.9,0.8
			c0.3,0.1,0.8,0,1-0.2c1.1-1.3,2.2-2.7,3.3-4c0.7-0.9,1.4-1.8,2.1-2.7c-1.2-0.7-1.3-0.7-2,0.2c-0.6,0.7-1.1,1.5-1.7,2.2
			C343.6,105,343,105.8,342.3,106.6z M367.1,103.4c0.2-0.4,0.4-0.9,0.6-1.3c-0.4,0.1-0.9,0.1-1.3,0.2c-0.2-0.3-0.6-1-0.8-1
			c-0.9,0.1,0,0.9-0.4,1.4c-0.1,0-0.3,0-0.5,0c-0.3,0.1-0.5,0.2-0.8,0.4c0.2,0.2,0.4,0.4,0.7,0.5c0.8,0.1,0.6,0.4,0.4,0.9
			c-0.1,0.2,0.1,0.4,0.2,0.7c0.2-0.1,0.5-0.2,0.6-0.3c0.2-0.2,0.2-0.5,0.3-0.6c0.5,0.1,1,0.2,1.5,0.3
			C367.5,104.1,367.3,103.7,367.1,103.4z M371.3,101.9c0.2-0.6,0.4-1,0.6-1.4c-0.4,0.1-0.9,0.2-1.3,0.3c-0.3-0.2-0.6-0.5-1-0.8
			c-0.1,0.5-0.1,0.9-0.2,1.4c0,0-0.2,0-0.4,0.1c-0.2,0.1-0.5,0.3-0.7,0.4c0.2,0.1,0.5,0.4,0.7,0.4c0.7,0,0.6,0.4,0.5,0.9
			c0,0.2,0.1,0.4,0.2,0.6c0.2-0.1,0.6-0.3,0.6-0.4c0.1-0.8,0.4-0.9,1-0.4c0.1,0.1,0.4,0,0.7-0.1c-0.1-0.2-0.1-0.5-0.2-0.6
			C371.7,102.1,371.4,102,371.3,101.9z"/>
		<path class="st0" d="M358.8,107.8c1-0.1,1.7-0.2,2.6-0.3c-0.6-1.2-1-2.2-1.5-3.3c-0.1,0-0.2,0-0.2,0
			C359.5,105.3,359.2,106.4,358.8,107.8z"/>
		<path class="st0" d="M358.8,107.8c0.3-1.3,0.6-2.4,0.9-3.5c0.1,0,0.2,0,0.2,0c0.5,1,0.9,2,1.5,3.3
			C360.6,107.6,359.8,107.7,358.8,107.8z"/>
		<path class="st0" d="M382.2,25c0.4,0.1,0.8,0.1,1.2,0.2c3,0.4,5.7,1.4,8.1,3.1c4.4,3.1,7.2,7.3,8.2,12.6c0.9,4.7-0.1,9.1-2.6,13.1
			c-0.5,0.8-1.1,1.6-1.7,2.4c-0.1,0.1-0.1,0.2-0.2,0.2c-0.1,0-0.2,0.1-0.3,0c-0.1-0.1-0.1-0.2-0.1-0.3c0-0.1,0.1-0.1,0.1-0.2
			c2-2.4,3.1-5.2,3.6-8.2c0.3-1.8,0.4-3.5,0.2-5.3c-0.3-3.4-1.5-6.5-3.6-9.2c-2.6-3.4-6.1-5.7-10.3-6.7c-1.9-0.5-3.9-0.6-5.9-0.4
			c-4.1,0.4-7.6,1.9-10.7,4.6c-1.7,1.5-3.1,3.3-4.1,5.4c0,0.1-0.1,0.2-0.1,0.2c-0.1,0.2-0.2,0.3-0.4,0.2c-0.2-0.1-0.2-0.3-0.1-0.4
			c0.3-0.6,0.6-1.2,0.9-1.7c2.4-4,5.8-7,10.3-8.5c1.4-0.5,2.8-0.8,4.3-0.9c0.1,0,0.2,0,0.2-0.1C380.2,25,381.2,25,382.2,25z"/>
		<g>
			<path class="st0" d="M340.7,51.3c0.2-0.8,0.4-1.6,0.6-2.4c0.1-0.3,0.1-0.6,0.2-0.8c0-0.2,0.1-0.2,0.3-0.2c1.1,0,2.2,0,3.3,0
				c2.2,0,4.3,0,6.5,0c0.1,0,0.2,0,0.4,0c-0.3,1.2-0.5,2.3-0.8,3.4c-0.4,0-0.8,0-1.2,0c-1,0-1.9,0-2.9,0c-0.2,0-0.3,0-0.4,0.3
				c-0.5,2.3-1.1,4.6-1.7,7c0,0,0,0.1,0,0.1c-1.3,0-2.6,0-3.9,0c0.6-2.4,1.2-4.9,1.7-7.3C342.1,51.3,341.4,51.3,340.7,51.3
				C340.7,51.3,340.7,51.3,340.7,51.3z"/>
			<path class="st0" d="M352.9,51.2c0.1-0.6,0.3-1.2,0.4-1.7c0.1-0.5,0.2-1,0.3-1.5c0-0.1,0.1-0.2,0.2-0.2c1.7,0,3.4,0,5.1,0
				c0,0,0.1,0,0.1,0c0.2,2.1,0.7,4.3,0.6,6.3c0.2-0.5,0.4-1.1,0.6-1.7c0.6-1.5,1.2-3,1.8-4.4c0.1-0.1,0.1-0.3,0.3-0.3
				c1.1,0,2.3,0,3.4,0c0,0,0.1,0,0.1,0c0,0.1-0.1,0.2-0.1,0.3c-1.7,3.4-3.4,6.8-5.1,10.3c-0.1,0.2-0.2,0.2-0.4,0.2
				c-0.9,0-1.8,0-2.8,0c-0.1-0.6-0.2-1.1-0.4-1.6c-0.4-1.8-0.8-3.7-1.2-5.5c0-0.2-0.1-0.2-0.3-0.2c-0.8,0-1.7,0-2.5,0
				C353.2,51.2,353,51.2,352.9,51.2z"/>
			<path class="st0" d="M351,51.9c-0.2,0.7-0.3,1.4-0.5,2.1c-0.1,0.4-0.1,0.8-0.1,1.2c0,0.3,0.2,0.5,0.5,0.5c0.4,0.1,0.9-0.1,1-0.5
				c0.2-0.5,0.3-1.1,0.5-1.7c0.1-0.5,0.2-1.1,0.4-1.6c1.1,0,2.1,0,3.2,0c-0.4,1.4-0.7,2.7-1.1,4c-0.5,1.5-1.6,2.6-3.2,3.1
				c-0.8,0.2-1.7,0.2-2.5,0c-1.1-0.3-1.8-1.2-1.9-2.3c-0.1-1.1,0.1-2.2,0.4-3.2c0.1-0.5,0.2-1,0.3-1.5c0-0.1,0.1-0.2,0.2-0.2
				c1,0,1.9,0,2.9,0C350.9,51.8,351,51.8,351,51.9z"/>
		</g>
		<path class="st0" d="M356.2,121.6c-30.3,0-54.9-24.6-54.9-54.9s24.6-54.9,54.9-54.9c30.3,0,54.9,24.6,54.9,54.9
			S386.5,121.6,356.2,121.6z M356.2,12.9c-29.6,0-53.7,24.1-53.7,53.7s24.1,53.7,53.7,53.7c29.6,0,53.7-24.1,53.7-53.7
			S385.8,12.9,356.2,12.9z"/>
	</g>
	<g>
		<text transform="matrix(1 0 0 1 210.5733 58.4927)" class="st0 st1 st2">NEDERLAND</text>
		<path class="st0" d="M203.3,26c0,3.5,0,6.9,0,10.4c0,1.3,0,1.4-1.4,1.4c-3.4,0.1-6.7,0.8-9.8,2.2c-6.3,2.7-11.2,7.1-14.4,13.1
			c-3.5,6.5-4.3,13.3-2.7,20.4c1.4,5.9,4.4,11,9,15c6.8,6,14.8,8.4,23.8,7c8.3-1.3,14.9-5.6,19.6-12.6c3.1-4.6,4.7-9.8,4.9-15.4
			c0-0.6,0.2-0.8,0.8-0.8c7.3,0,14.5,0,21.8,0c0.8,0,0.8,0.4,0.8,1c-0.1,5.3-0.9,10.5-2.6,15.6c-3.2,9.5-8.6,17.4-16.3,23.8
			c-5.6,4.6-11.8,8-18.7,10c-8.1,2.4-16.2,2.8-24.5,1.2c-8.4-1.6-16.1-5-22.8-10.3c-6.9-5.5-12.2-12.2-15.7-20.3
			c-4.3-10-5.4-20.4-3.4-31c2.3-11.9,8.2-21.9,17.5-29.8c5.5-4.7,11.8-8.1,18.7-10.3c4.7-1.4,9.5-2.1,14.4-2.3c0.8,0,1,0.3,1,1
			C203.3,18.9,203.3,22.4,203.3,26z M193.3,101c-2.4,0-4.4,2.3-4.4,5c0,2.4,1.9,4.3,4.3,4.3c2.3,0,4.3-2.2,4.3-4.9
			C197.5,102.9,195.7,101,193.3,101z M180.5,103.5c-0.1,0-0.1,0.1-0.2,0.1c0.4,0.7,0.6,1.5,1.1,2c0.7,0.6,1.7,1.1,2.6,1.4
			c1.3,0.4,2.5-0.2,3.1-1.3c0.5-1,0.2-2.1-0.8-3.1c-0.6-0.6-1.3-1.1-1.8-1.8c-0.6-0.6-0.3-1.5,0.4-1.7c1-0.3,2.6,0.9,2.4,1.9
			c-0.2,1,0.6,0.8,1,1.1c0.2-0.3,0.5-0.6,0.6-0.9c0.1-0.3,0-0.8-0.2-1.1c-0.6-1.6-1.9-2.1-3.5-2.3c-1.1-0.1-2.1,0.5-2.5,1.4
			c-0.4,0.9-0.1,1.9,0.7,2.7c0.7,0.6,1.4,1.2,2,1.9c0.2,0.3,0.4,0.8,0.3,1.1c-0.2,0.4-0.7,0.8-1.1,0.8c-1.4,0.2-2.6-1.2-2.4-2.5
			c0.1-0.8-0.6-0.8-1-1c-0.1,0-0.4,0.4-0.5,0.7C180.5,103.1,180.6,103.3,180.5,103.5z M206.6,107.8c0.1,0,0.2,0,0.3,0.1
			c-0.2,0.6-0.3,1.3-0.7,1.8c-0.6,0.9-1.6,0.9-2.2-0.1c-0.4-0.7-0.9-0.4-1.4-0.3c0.1,0.4,0,0.9,0.2,1.1c0.6,0.9,1.5,1.2,2.5,1.1
			c1.2-0.2,2-0.9,2.4-2c0.6-1.6,0.5-3.3,0-4.9c-0.5-1.7-2-2.4-3.7-1.9c-1.4,0.4-2.3,1.8-2,3.4c0.3,1.7,1.4,2.6,3,2.4
			C205.6,108.3,206.1,108,206.6,107.8z M209.1,104.6c0.1,1.7,0.4,3.2,1.3,4.5c0.7,1.1,1.7,1.4,2.9,1.2c1.2-0.2,1.8-1,2-2.1
			c0.4-2.1-0.1-4-1.2-5.7c-0.6-0.8-1.5-1.3-2.5-1.1c-1,0.2-1.8,0.7-2.2,1.7C209.2,103.8,209.1,104.3,209.1,104.6z M215.7,102.8
			c0.2,1.4,0.8,3,2,4.4c0.9,1,2,1.3,3.2,0.7c1.1-0.5,1.7-1.5,1.6-2.9c-0.1-1.7-0.8-3.2-1.9-4.5c-0.8-1.1-2-1.4-3-1
			C216.3,100,215.7,100.9,215.7,102.8z M228.5,103.5c-0.1-0.3-0.2-0.4-0.3-0.5c-1.3-2-2.7-4.1-4-6.1c-0.1-0.2-0.6-0.5-0.7-0.4
			c-0.3,0.1-0.6,0.5-0.6,0.8c0,0.9-0.4,1.5-1,1.9c-0.5,0.4-0.4,0.8,0,0.9c0.3,0.1,0.9-0.1,1.2-0.3c0.6-0.5,0.9-0.4,1.3,0.2
			c0.8,1.3,1.6,2.5,2.5,3.7c0.1,0.2,0.5,0.4,0.7,0.3C227.9,104,228.1,103.7,228.5,103.5z M177.7,103.2c0.2-0.2,0.4-0.4,0.5-0.5
			c1.4-1.9,2.8-3.9,4.3-5.8c0.4-0.5,0.4-0.8-0.1-1.2c-0.6-0.4-0.8-0.2-1.2,0.3c-1.4,2-2.8,3.9-4.2,5.8c-0.1,0.2-0.3,0.6-0.2,0.7
			C177,102.8,177.3,103,177.7,103.2z"/>
		<path class="st0" d="M190.5,105.9c0,1.6,0.5,2.5,1.5,2.9c1,0.4,2.1,0.2,2.7-0.6c0.9-1.1,1.4-2.3,1.1-3.7c-0.2-1-0.7-1.7-1.7-2
			c-1-0.3-1.9-0.1-2.6,0.8C190.8,104.1,190.5,105,190.5,105.9z"/>
		<path class="st0" d="M206.5,105.5c0-1-0.6-1.8-1.5-1.8c-0.8,0-1.5,0.8-1.5,1.7c0,1,0.7,1.8,1.5,1.8
			C205.9,107.2,206.5,106.5,206.5,105.5z"/>
		<path class="st0" d="M214,107.4c0.1,0,0.1-0.1,0.2-0.1c-0.4-1.3-0.8-2.6-1.4-3.8c-0.2-0.3-0.8-0.7-1.2-0.6c-0.4,0-0.8,0.4-1,0.8
			c-0.6,1.1,0.2,4.4,1.2,5.3c0.7,0.6,1.7,0.4,2-0.5C214,108.1,214,107.7,214,107.4z"/>
		<path class="st0" d="M216.9,101.8c0.2,1.9,0.8,3.4,1.9,4.6c0.3,0.3,1,0.5,1.5,0.4c0.7-0.1,0.8-0.8,0.8-1.4
			c-0.2-1.6-0.7-3.1-1.9-4.2c-0.3-0.3-1-0.5-1.4-0.4C217.4,101,217.1,101.5,216.9,101.8z"/>
		<path class="st0" d="M190.5,105.9c0-0.8,0.3-1.8,1-2.7c0.7-0.8,1.6-1.1,2.6-0.8c1,0.3,1.6,1,1.7,2c0.2,1.4-0.2,2.7-1.1,3.7
			c-0.7,0.8-1.7,1-2.7,0.6C191,108.3,190.5,107.5,190.5,105.9z"/>
		<path class="st0" d="M206.5,105.5c0,1-0.6,1.7-1.5,1.7c-0.9,0-1.5-0.8-1.5-1.8c0-0.9,0.7-1.7,1.5-1.7
			C205.9,103.7,206.6,104.5,206.5,105.5z"/>
		<path class="st0" d="M214,107.4c-0.1,0.3-0.1,0.7-0.2,1c-0.3,0.9-1.3,1.1-2,0.5c-1-0.8-1.8-4.1-1.2-5.3c0.2-0.4,0.7-0.8,1-0.8
			c0.4,0,1,0.3,1.2,0.6c0.5,1.2,0.9,2.5,1.4,3.8C214.2,107.3,214.1,107.3,214,107.4z"/>
		<path class="st0" d="M216.9,101.8c0.2-0.2,0.4-0.8,0.9-1c0.4-0.1,1.1,0.1,1.4,0.4c1.2,1.1,1.7,2.6,1.9,4.2
			c0.1,0.6-0.1,1.3-0.8,1.4c-0.5,0.1-1.2-0.1-1.5-0.4C217.8,105.2,217.1,103.7,216.9,101.8z"/>
		<path class="st0" d="M229,25c0.4,0.1,0.8,0.1,1.2,0.2c3,0.4,5.7,1.4,8.1,3.1c4.4,3.1,7.2,7.3,8.2,12.6c0.9,4.7-0.1,9.1-2.6,13.1
			c-0.5,0.8-1.1,1.6-1.7,2.4c-0.1,0.1-0.1,0.2-0.2,0.2c-0.1,0-0.2,0.1-0.3,0c-0.1-0.1-0.1-0.2-0.1-0.3c0-0.1,0.1-0.1,0.1-0.2
			c2-2.4,3.1-5.2,3.6-8.2c0.3-1.8,0.4-3.5,0.2-5.3c-0.3-3.4-1.5-6.5-3.6-9.2c-2.6-3.4-6.1-5.7-10.3-6.7c-1.9-0.5-3.9-0.6-5.9-0.4
			c-4.1,0.4-7.6,1.9-10.7,4.6c-1.7,1.5-3.1,3.3-4.1,5.4c0,0.1-0.1,0.2-0.1,0.2c-0.1,0.2-0.2,0.3-0.4,0.2c-0.2-0.1-0.2-0.3-0.1-0.4
			c0.3-0.6,0.6-1.2,0.9-1.7c2.4-4,5.8-7,10.3-8.5c1.4-0.5,2.8-0.8,4.3-0.9c0.1,0,0.2,0,0.2-0.1C227,25,228,25,229,25z"/>
		<g>
			<path class="st0" d="M187.5,51.3c0.2-0.8,0.4-1.6,0.6-2.4c0.1-0.3,0.1-0.6,0.2-0.8c0-0.2,0.1-0.2,0.3-0.2c1.1,0,2.2,0,3.3,0
				c2.2,0,4.3,0,6.5,0c0.1,0,0.2,0,0.4,0c-0.3,1.2-0.5,2.3-0.8,3.4c-0.4,0-0.8,0-1.2,0c-1,0-1.9,0-2.9,0c-0.2,0-0.3,0-0.4,0.3
				c-0.5,2.3-1.1,4.6-1.7,7c0,0,0,0.1,0,0.1c-1.3,0-2.6,0-3.9,0c0.6-2.4,1.2-4.9,1.7-7.3C188.9,51.3,188.2,51.3,187.5,51.3
				C187.5,51.3,187.5,51.3,187.5,51.3z"/>
			<path class="st0" d="M199.7,51.2c0.1-0.6,0.3-1.2,0.4-1.7c0.1-0.5,0.2-1,0.3-1.5c0-0.1,0.1-0.2,0.2-0.2c1.7,0,3.4,0,5.1,0
				c0,0,0.1,0,0.1,0c0.2,2.1,0.7,4.3,0.6,6.3c0.2-0.5,0.4-1.1,0.6-1.7c0.6-1.5,1.2-3,1.8-4.4c0.1-0.1,0.1-0.3,0.3-0.3
				c1.1,0,2.3,0,3.4,0c0,0,0.1,0,0.1,0c0,0.1-0.1,0.2-0.1,0.3c-1.7,3.4-3.4,6.8-5.1,10.3c-0.1,0.2-0.2,0.2-0.4,0.2
				c-0.9,0-1.8,0-2.8,0c-0.1-0.6-0.2-1.1-0.4-1.6c-0.4-1.8-0.8-3.7-1.2-5.5c0-0.2-0.1-0.2-0.3-0.2c-0.8,0-1.7,0-2.5,0
				C199.9,51.2,199.8,51.2,199.7,51.2z"/>
			<path class="st0" d="M197.8,51.9c-0.2,0.7-0.3,1.4-0.5,2.1c-0.1,0.4-0.1,0.8-0.1,1.2c0,0.3,0.2,0.5,0.5,0.5
				c0.4,0.1,0.9-0.1,1-0.5c0.2-0.5,0.3-1.1,0.5-1.7c0.1-0.5,0.2-1.1,0.4-1.6c1.1,0,2.1,0,3.2,0c-0.4,1.4-0.7,2.7-1.1,4
				c-0.5,1.5-1.6,2.6-3.2,3.1c-0.8,0.2-1.7,0.2-2.5,0c-1.1-0.3-1.8-1.2-1.9-2.3c-0.1-1.1,0.1-2.2,0.4-3.2c0.1-0.5,0.2-1,0.3-1.5
				c0-0.1,0.1-0.2,0.2-0.2c1,0,1.9,0,2.9,0C197.7,51.8,197.8,51.8,197.8,51.9z"/>
		</g>
		<path class="st0" d="M203.3,121.6c-30.3,0-54.9-24.6-54.9-54.9s24.6-54.9,54.9-54.9c30.3,0,54.9,24.6,54.9,54.9
			S233.6,121.6,203.3,121.6z M203.3,12.9c-29.6,0-53.7,24.1-53.7,53.7s24.1,53.7,53.7,53.7c29.6,0,53.7-24.1,53.7-53.7
			S233,12.9,203.3,12.9z"/>
	</g>
	<g>
		<path class="st0" d="M77.8,25.3c0.9,0,1.4-0.9,1.4-2c0-1.1-0.5-2-1.4-2c-0.9,0-1.4,0.9-1.4,2C76.4,24.5,76.9,25.3,77.8,25.3z
			 M95.5,30.5c0.5,0,0.9-0.4,0.9-1.1c0-0.3,0-0.5-0.1-0.6h-1.8c0,0.1,0,0.3,0,0.5C94.5,30,94.9,30.5,95.5,30.5z M29.2,22.2
			c0-0.5-0.4-0.9-1.1-0.9c-0.3,0-0.5,0-0.6,0.1v1.8c0.1,0,0.3,0,0.5,0C28.8,23.1,29.2,22.8,29.2,22.2z M95.6,38.7
			c0.5,0,0.8-0.4,0.8-1c0-0.3,0-0.5,0-0.6h-1.6v0.5C94.7,38.3,95.1,38.7,95.6,38.7z M65.3,22.5c-0.1-0.4-0.2-0.8-0.3-1.2h0
			c-0.1,0.4-0.2,0.8-0.3,1.2l-0.4,1.3h1.3L65.3,22.5z M5,59.7L5,59.7c0.4,0.1,0.8,0.2,1.2,0.3l1.3,0.4V59l-1.3,0.4
			C5.8,59.5,5.3,59.6,5,59.7z M85.6,108c-0.9,0-1.4,0.9-1.4,2c0,1.2,0.5,2,1.5,2c0.9,0,1.4-0.9,1.4-2C87.1,108.9,86.5,108,85.6,108z
			 M85.5,60.4c0-4.7,0.1-9.3,0-13.8c-0.2-8.2-4.3-12.7-12.4-13.9c-8.1-1.2-14.7,3.7-15.6,11.9c-0.4,4-0.2,8.1-0.3,12.2
			c0,1.2,0,2.4,0,3.7H85.5z M63.9,44.8c0.3-2.6,2.2-4.3,4.7-4.6c2.2-0.3,4.5-0.2,6.6,0.3c2.7,0.7,4.1,2.9,4.2,5.6
			c0.1,2.4,0,4.8,0,7.3H63.8C63.8,50.6,63.6,47.7,63.9,44.8z M96.4,73.4L96.4,73.4c-0.4-0.1-0.8-0.2-1.2-0.3l-1.3-0.4v1.3l1.3-0.4
			C95.6,73.6,96,73.5,96.4,73.4z M71.4,100.3c7.7,0,13.9-6.2,13.9-13.8c0-7.5-6.4-13.8-14-13.8c-7.5,0-13.8,6.3-13.8,13.8
			C57.6,94.1,63.7,100.3,71.4,100.3z M89.9,21.3L89.9,21.3c-0.1,0.4-0.2,0.8-0.3,1.2l-0.4,1.3h1.3l-0.4-1.3
			C90.1,22.1,90,21.7,89.9,21.3z M94.7,64v0.5c0,0.7,0.3,1.1,0.9,1.1c0.5,0,0.8-0.4,0.8-1c0-0.3,0-0.5,0-0.6H94.7z M2.7,18.7v95.9
			h95.9V18.7H2.7z M97.4,29.3c0,0.8-0.2,1.4-0.5,1.8c-0.3,0.4-0.8,0.6-1.4,0.6c-0.6,0-1.1-0.2-1.4-0.5c-0.4-0.5-0.6-1.1-0.6-1.9
			c0-0.2,0-0.3,0-0.5h-2.1v-1.3h5.9C97.4,27.9,97.4,28.5,97.4,29.3z M91.4,37.1v-1.3h5.9c0.1,0.4,0.1,1.1,0.1,1.8
			c0,0.9-0.1,1.5-0.5,1.9c-0.3,0.4-0.7,0.5-1.2,0.5c-0.8,0-1.3-0.5-1.5-1.1h0c-0.2,0.4-0.6,0.6-1.1,0.8c-0.7,0.2-1.5,0.4-1.7,0.5
			v-1.4c0.2-0.1,0.7-0.2,1.4-0.4c0.7-0.2,0.9-0.4,1-1v-0.4H91.4z M93.5,20.3h1.4v4.8h2.4v1.1h-3.7V20.3z M81.5,20.3h1.6l1.2,2.2
			c0.4,0.6,0.7,1.4,1,2h0c-0.1-0.8-0.1-1.6-0.1-2.5v-1.7h1.2v6h-1.4L83.8,24c-0.4-0.6-0.7-1.4-1-2.1l0,0c0,0.8,0.1,1.6,0.1,2.6v1.8
			h-1.2V20.3z M77.8,20.2c1.8,0,2.8,1.4,2.8,3c0,2-1.2,3.1-2.9,3.1c-1.8,0-2.8-1.3-2.8-3C74.9,21.5,76.1,20.2,77.8,20.2z M72.7,20.3
			H74v6h-1.4V20.3z M67.4,20.3H72v1.1h-1.6v4.8H69v-4.8h-1.6V20.3z M64.1,20.3h1.8l1.9,6h-1.5l-0.5-1.5h-1.7l-0.4,1.5h-1.4
			L64.1,20.3z M56.6,20.3h1.6l1.2,2.2c0.4,0.6,0.7,1.4,1,2h0c-0.1-0.8-0.1-1.6-0.1-2.5v-1.7h1.2v6h-1.4L58.9,24
			c-0.4-0.6-0.7-1.4-1-2.1l0,0c0,0.8,0.1,1.6,0.1,2.6v1.8h-1.2V20.3z M41.4,20.3H46v1.1h-1.6v4.8H43v-4.8h-1.6V20.3z M35.7,20.3h1.6
			l1.2,2.2c0.4,0.6,0.7,1.4,1,2h0c-0.1-0.8-0.1-1.6-0.1-2.5v-1.7h1.2v6h-1.4L38,24c-0.4-0.6-0.7-1.4-1-2.1l0,0
			c0,0.8,0.1,1.6,0.1,2.6v1.8h-1.2V20.3z M33.2,20.3h1.4v6h-1.4V20.3z M26.3,20.4c0.4-0.1,1-0.1,1.8-0.1c0.8,0,1.4,0.2,1.8,0.5
			c0.4,0.3,0.6,0.8,0.6,1.4c0,0.6-0.2,1.1-0.5,1.4c-0.5,0.4-1.1,0.6-1.9,0.6c-0.2,0-0.3,0-0.5,0v2.1h-1.3V20.4z M24,20.2
			c0.7,0,1.2,0.1,1.5,0.3l-0.3,1.1c-0.3-0.1-0.7-0.2-1.1-0.2c-1.1,0-1.9,0.6-1.9,2c0,1.2,0.7,1.9,1.9,1.9c0.4,0,0.9-0.1,1.1-0.2
			l0.2,1.1c-0.2,0.1-0.8,0.3-1.5,0.3c-2.1,0-3.1-1.3-3.1-3C20.7,21.3,22.2,20.2,24,20.2z M19,20.2c0.7,0,1.2,0.1,1.5,0.3l-0.3,1.1
			c-0.3-0.1-0.7-0.2-1.1-0.2c-1.1,0-1.9,0.6-1.9,2c0,1.2,0.7,1.9,1.9,1.9c0.4,0,0.9-0.1,1.1-0.2l0.2,1.1c-0.2,0.1-0.8,0.3-1.5,0.3
			c-2.1,0-3.1-1.3-3.1-3C15.7,21.3,17.2,20.2,19,20.2z M4.3,20.3h1.4v2.3h2.2v-2.3h1.3v6H7.9v-2.5H5.7v2.5H4.3V20.3z M4,31.7L5.4,31
			c0.4-0.2,0.8-0.3,1.1-0.5v0c-0.4-0.1-0.7-0.3-1.1-0.5L4,29.5V28l3.5,2h2.5v1.3H7.5L4,33.2V31.7z M4,35.7h1.1v1.6h4.8v1.4H5.1v1.6
			H4V35.7z M4,43.2h1.1v2.3h1.2v-2.2h1.1v2.2h1.4v-2.5h1.1v3.8H4V43.2z M4,50.2h1.1v2.3h1.4v-2.1h1.1v2.1h2.4v1.4H4V50.2z M4,58.8
			l6-1.9v1.5l-1.5,0.5v1.7L9.9,61v1.4l-6-1.8V58.8z M4.2,65.4l1.1,0.3C5.1,65.9,5,66.3,5,66.9c0,0.6,0.3,0.9,0.6,0.9
			c0.4,0,0.5-0.3,0.8-1.1c0.4-1.1,0.9-1.5,1.8-1.5c1,0,1.8,0.8,1.8,2.4c0,0.7-0.2,1.4-0.4,1.7L8.5,69c0.2-0.4,0.4-0.9,0.4-1.5
			c0-0.6-0.3-0.9-0.6-0.9c-0.4,0-0.6,0.3-0.8,1c-0.3,1-0.9,1.6-1.8,1.6c-1,0-1.8-0.8-1.8-2.3C3.9,66.2,4,65.7,4.2,65.4z M10,80
			c0,0.7,0,1.2-0.1,1.5H4C4,81,3.9,80.4,3.9,79.7c0-1.1,0.2-1.9,0.6-2.4c0.5-0.6,1.2-1,2.2-1c1.1,0,1.9,0.4,2.4,1
			C9.7,77.8,10,78.8,10,80z M7.4,112c0.4,0,0.9-0.1,1.1-0.2l0.2,1.1c-0.2,0.1-0.8,0.3-1.5,0.3c-2.1,0-3.1-1.3-3.1-3
			c0-2,1.5-3.2,3.3-3.2c0.7,0,1.2,0.1,1.5,0.3l-0.3,1.1c-0.3-0.1-0.7-0.2-1.1-0.2c-1.1,0-1.9,0.6-1.9,2C5.5,111.2,6.2,112,7.4,112z
			 M9.9,105.7H4V102h1.1v2.3h1.4v-2.1h1.1v2.1h2.4V105.7z M7,99c-1.8,0-3.1-1.1-3.1-2.9c0-1.8,1.4-2.8,3-2.8c2,0,3.1,1.2,3.1,2.9
			C10,98,8.7,99,7,99z M7,90.4c-1.8,0-3.1-1.1-3.1-2.9c0-1.8,1.4-2.8,3-2.8c2,0,3.1,1.2,3.1,2.9C10,89.4,8.7,90.4,7,90.4z
			 M11.4,26.3H10l1.8-6h1.8l1.8,6H14l-0.5-1.5h-1.7L11.4,26.3z M11.8,27.5h37.7v37.7H11.8V27.5z M11.8,96.4V67.8h37.9v37.8H21.3
			c4.7-4.8,9.5-9.7,14.6-14.9c3,3,6,6.1,9,9.2V72.6H17.1c3.2,3.1,6.4,6.3,9.2,9.1c-4.9,5.2-9.5,10.1-14.1,15
			C12.1,96.6,11.9,96.5,11.8,96.4z M16.3,113h-3.8v-6h3.7v1.1h-2.3v1.2H16v1.1h-2.2v1.4h2.5V113z M23.1,113
			c-0.1-0.2-0.2-0.7-0.4-1.4c-0.2-0.7-0.4-0.9-1-1h-0.4v2.3H20v-5.9c0.4-0.1,1.1-0.1,1.8-0.1c0.9,0,1.5,0.1,1.9,0.5
			c0.4,0.3,0.5,0.7,0.5,1.2c0,0.8-0.5,1.3-1.1,1.5v0c0.4,0.2,0.6,0.6,0.8,1.1c0.2,0.7,0.4,1.5,0.5,1.7H23.1z M32.2,108.1h-1.6v4.8
			h-1.4v-4.8h-1.6V107h4.6V108.1z M37.1,113h-1.4v-6h1.4V113z M44.7,108.1h-2.3v1.4h2.1v1.1h-2.1v2.4h-1.4v-6h3.6V108.1z M49.9,113
			h-1.4v-6h1.4V113z M50.5,26.3h-3.8v-6h3.7v1.1H48v1.2h2.2v1.1H48v1.4h2.5V26.3z M51.4,20.4c0.4-0.1,1.1-0.1,1.8-0.1
			c0.9,0,1.5,0.1,1.9,0.5c0.4,0.3,0.5,0.7,0.5,1.2c0,0.8-0.5,1.3-1.1,1.5v0c0.4,0.2,0.6,0.6,0.8,1.1c0.2,0.7,0.4,1.5,0.5,1.7h-1.4
			c-0.1-0.2-0.2-0.7-0.4-1.4c-0.2-0.7-0.4-0.9-1-1h-0.4v2.3h-1.3V20.4z M57,112c0.4,0,0.9-0.1,1.1-0.2l0.2,1.1
			c-0.2,0.1-0.8,0.3-1.5,0.3c-2.1,0-3.1-1.3-3.1-3c0-2,1.5-3.2,3.3-3.2c0.7,0,1.2,0.1,1.5,0.3l-0.3,1.1c-0.3-0.1-0.7-0.2-1.1-0.2
			c-1.1,0-1.9,0.6-1.9,2C55.1,111.2,55.8,112,57,112z M65.7,113l-0.5-1.5h-1.7l-0.4,1.5h-1.4l1.8-6h1.8l1.9,6H65.7z M74.1,108.1
			h-1.6v4.8h-1.4v-4.8h-1.6V107h4.6V108.1z M79,113h-1.4v-6H79V113z M85.6,113.1c-1.8,0-2.8-1.3-2.8-3c0-1.8,1.1-3.1,2.9-3.1
			c1.8,0,2.8,1.4,2.8,3C88.5,111.9,87.3,113.1,85.6,113.1z M89.8,105.5H52.1V67.8h37.7V105.5z M89.9,65.2H52.2V27.5h37.7V65.2z
			 M90.8,24.7H89l-0.4,1.5h-1.4l1.8-6h1.8l1.9,6h-1.5L90.8,24.7z M97.1,113h-1.4l-1.3-2.3c-0.4-0.6-0.7-1.4-1-2.1l0,0
			c0,0.8,0.1,1.6,0.1,2.6v1.8h-1.2v-6h1.6l1.2,2.2c0.4,0.6,0.7,1.4,1,2h0c-0.1-0.8-0.1-1.6-0.1-2.5V107h1.2V113z M97.4,105h-1.1
			v-2.3H95v2.2h-1.1v-2.2h-1.4v2.5h-1.1v-3.8h6V105z M97.4,92.7l-2,0.6c-0.7,0.2-1.4,0.4-2.1,0.5v0c0.7,0.2,1.5,0.4,2.1,0.6l2,0.6
			v1.8l-6,0.3v-1.3l2.3-0.1c0.7,0,1.6-0.1,2.5-0.1v0c-0.8-0.2-1.6-0.4-2.3-0.7l-2.3-0.7v-1.1l2.3-0.6c0.7-0.2,1.5-0.4,2.3-0.5v0
			c-0.8,0-1.7-0.1-2.5-0.1l-2.3-0.1v-1.2l6,0.4V92.7z M97.4,82.1l-2,0.6c-0.7,0.2-1.4,0.4-2.1,0.5v0c0.7,0.2,1.5,0.4,2.1,0.6l2,0.6
			v1.8l-6,0.3v-1.3l2.3-0.1c0.7,0,1.6-0.1,2.5-0.1v0c-0.8-0.2-1.6-0.4-2.3-0.7l-2.3-0.7v-1.1l2.3-0.6c0.7-0.2,1.5-0.4,2.3-0.5v0
			c-0.8,0-1.7-0.1-2.5-0.1l-2.3-0.1v-1.2l6,0.4V82.1z M97.4,74.3l-6,1.9v-1.5l1.5-0.5v-1.7l-1.5-0.4v-1.4l6,1.8V74.3z M96.9,66.4
			c-0.3,0.4-0.7,0.5-1.2,0.5c-0.8,0-1.3-0.5-1.5-1.1h0c-0.2,0.4-0.6,0.6-1.1,0.8c-0.7,0.2-1.5,0.4-1.7,0.5v-1.4
			c0.2-0.1,0.7-0.2,1.4-0.4c0.7-0.2,0.9-0.4,1-1V64h-2.3v-1.3h5.9c0.1,0.4,0.1,1.1,0.1,1.8C97.4,65.4,97.3,66,96.9,66.4z M97.1,58.3
			l-1.1-0.3c0.1-0.3,0.3-0.7,0.3-1.4c0-1.1-0.6-2-1.9-2c-1.2,0-2,0.8-2,1.9c0,0.3,0,0.6,0.1,0.7h1.2v-0.9h1.1v2.2h-3.1
			c-0.1-0.4-0.3-1.2-0.3-2c0-1.1,0.3-1.9,0.8-2.4c0.5-0.5,1.3-0.8,2.2-0.8c2,0,3.1,1.5,3.1,3.4C97.4,57.5,97.3,58.1,97.1,58.3z
			 M94.4,49.6c-2,0-3.1-1.2-3.1-2.9c0-1.8,1.3-2.8,3-2.8c1.8,0,3.1,1.1,3.1,2.9C97.5,48.6,96.1,49.6,94.4,49.6z M94.4,45.2
			c-1.2,0-2,0.5-2,1.5c0,0.9,0.9,1.4,2,1.4c1.1,0,2-0.5,2-1.4C96.4,45.8,95.5,45.2,94.4,45.2z M21.9,108c-0.3,0-0.5,0-0.6,0v1.6h0.5
			c0.7,0,1.1-0.3,1.1-0.9C22.9,108.3,22.6,108,21.9,108z M6.9,86.1c-1.1,0-2,0.5-2,1.4c0,0.9,0.9,1.4,2,1.4c1.2,0,2-0.5,2-1.5
			C9,86.6,8.1,86.1,6.9,86.1z M6.9,94.7c-1.1,0-2,0.5-2,1.4c0,0.9,0.9,1.4,2,1.4c1.2,0,2-0.5,2-1.5C9,95.2,8.1,94.7,6.9,94.7z
			 M12.6,21.3L12.6,21.3c-0.1,0.4-0.2,0.8-0.3,1.2L12,23.7h1.3l-0.4-1.3C12.8,22.1,12.7,21.7,12.6,21.3z M54.3,22.1
			c0-0.5-0.4-0.8-1-0.8c-0.3,0-0.5,0-0.6,0v1.6h0.5C53.9,22.9,54.3,22.6,54.3,22.1z M64.3,108L64.3,108c-0.1,0.4-0.2,0.8-0.3,1.2
			l-0.4,1.3H65l-0.4-1.3C64.5,108.8,64.4,108.4,64.3,108z M6.8,77.7c-1.2,0-1.9,0.7-1.9,1.9C5,79.8,5,80,5,80.1h3.9
			c0-0.1,0-0.3,0-0.5C8.9,78.4,8.3,77.7,6.8,77.7z M44.4,60.3V33.7c-8.9,8.7-17.9,17.6-27.1,26.6H44.4z"/>
	</g>
</g>
</svg>
