<?xml version="1.0" encoding="utf-8"?>
<!-- Generator: Adobe Illustrator 23.0.3, SVG Export Plug-In . SVG Version: 6.00 Build 0)  -->
<svg version="1.1" id="Laag_1" xmlns="http://www.w3.org/2000/svg" xmlns:xlink="http://www.w3.org/1999/xlink" x="0px" y="0px"
	 width="28px" height="28px" viewBox="0 0 28 28" style="enable-background:new 0 0 28 28;" xml:space="preserve">
<style type="text/css">
	.st0{fill:#FFFFFF;}
	.st1{fill:#323232;}
</style>
<path id="facebook-circle-icon" class="st0" d="M14,0C6.3,0,0,6.3,0,14c0,7.7,6.3,14,14,14c7.7,0,14-6.3,14-14C28,6.3,21.7,0,14,0z
	 M18.1,8.2c0,0-1.4,0-2,0c-0.7,0-0.8,0.3-0.8,1c0,0.6,0,1.7,0,1.7h2.8l-0.3,3h-2.5V23h-3.6v-9H9.9V11h1.9c0,0,0-0.4,0-2.4
	c0-2.3,1.2-3.5,3.9-3.5c0.4,0,2.5,0,2.5,0V8.2L18.1,8.2z"/>
<path id="facebook-circle-icon_1_" class="st1" d="M18.1,8.2c0,0-1.4,0-2,0c-0.7,0-0.8,0.3-0.8,1c0,0.6,0,1.7,0,1.7h2.8l-0.3,3h-2.5
	V23h-3.6v-9H9.9V11h1.9c0,0,0-0.4,0-2.4c0-2.3,1.2-3.5,3.9-3.5c0.4,0,2.5,0,2.5,0V8.2L18.1,8.2z"/>
</svg>
