<?xml version="1.0" encoding="utf-8"?>
<!-- Generator: Adobe Illustrator 21.0.1, SVG Export Plug-In . SVG Version: 6.00 Build 0)  -->
<svg version="1.1" id="Laag_1" xmlns="http://www.w3.org/2000/svg" xmlns:xlink="http://www.w3.org/1999/xlink" x="0px" y="0px"
	 width="80px" height="80px" viewBox="0 0 80 80" style="enable-background:new 0 0 80 80;" xml:space="preserve">
<style type="text/css">
	.st0{clip-path:url(#SVGID_2_);fill:none;stroke:#1B1B1B;stroke-width:3.2791;stroke-miterlimit:10;}
	.st1{clip-path:url(#SVGID_4_);fill:none;stroke:#1B1B1B;stroke-width:3.2791;stroke-miterlimit:10;}
	.st2{clip-path:url(#SVGID_4_);fill:none;stroke:#1B1B1B;stroke-width:3.2791;stroke-linecap:round;stroke-miterlimit:10;}
	.st3{fill:none;stroke:#1B1B1B;stroke-width:3.2791;stroke-linecap:round;stroke-miterlimit:10;}
	.st4{clip-path:url(#SVGID_8_);fill:none;stroke:#1B1B1B;stroke-width:3.1776;stroke-linecap:round;stroke-miterlimit:10;}
	.st5{clip-path:url(#SVGID_10_);fill:none;stroke:#1B1B1B;stroke-width:3.2604;stroke-linecap:round;stroke-miterlimit:10;}
	.st6{fill:none;stroke:#1D1D1B;stroke-width:2.6865;stroke-miterlimit:10;}
	.st7{fill:none;stroke:#1D1D1B;stroke-width:2.6865;stroke-linecap:round;stroke-miterlimit:10;}
	.st8{fill:none;stroke:#1D1D1B;stroke-width:3.3447;stroke-linecap:round;stroke-miterlimit:10;}
	.st9{fill:none;stroke:#1D1D1B;stroke-width:3.1502;stroke-linecap:round;stroke-miterlimit:10;}
	.st10{fill:none;stroke:#1D1D1B;stroke-width:2.6747;stroke-linecap:round;stroke-miterlimit:10;}
	.st11{fill:none;}
</style>
<g>
	<path class="st7" d="M61.1,18.7c6,6,7.5,14.2-1.3,23s-24.5,14.7-30.5,8.7s0-21.7,8.7-30.5S55.1,12.7,61.1,18.7z"/>
	<path class="st7" d="M42.2,21.9c4.6-3.5,8.9-3.7,12.6-1.8"/>
	<path class="st7" d="M34,52.8c0,0-2.8,0.7-5.2,3s-3.5,3.5-3.6,6.2c-0.1,1.4-2.3,6-4.9,3.5c-2.7-2.5,0.3-4-0.7-5.4
		c-1.4-1-2.3,2.5-4.9-0.1c-2.5-2.7,2.1-4.9,3.5-4.9c2.7-0.2,3.9-1.3,6.2-3.6c2.3-2.3,3-5.2,3-5.2"/>
</g>
<rect class="st11" width="80" height="80"/>
</svg>
