<?xml version="1.0" encoding="utf-8"?>
<!-- Generator: Adobe Illustrator 21.0.1, SVG Export Plug-In . SVG Version: 6.00 Build 0)  -->
<svg version="1.1" id="Laag_1" xmlns="http://www.w3.org/2000/svg" xmlns:xlink="http://www.w3.org/1999/xlink" x="0px" y="0px"
	 width="80px" height="80px" viewBox="0 0 80 80" style="enable-background:new 0 0 80 80;" xml:space="preserve">
<style type="text/css">
	.st0{clip-path:url(#SVGID_2_);fill:none;stroke:#1B1B1B;stroke-width:3.2791;stroke-miterlimit:10;}
	.st1{clip-path:url(#SVGID_4_);fill:none;stroke:#1B1B1B;stroke-width:3.2791;stroke-miterlimit:10;}
	.st2{clip-path:url(#SVGID_4_);fill:none;stroke:#1B1B1B;stroke-width:3.2791;stroke-linecap:round;stroke-miterlimit:10;}
	.st3{fill:none;stroke:#1B1B1B;stroke-width:3.2791;stroke-linecap:round;stroke-miterlimit:10;}
	.st4{clip-path:url(#SVGID_8_);fill:none;stroke:#1B1B1B;stroke-width:3.1776;stroke-linecap:round;stroke-miterlimit:10;}
	.st5{clip-path:url(#SVGID_10_);fill:none;stroke:#1B1B1B;stroke-width:3.2604;stroke-linecap:round;stroke-miterlimit:10;}
	.st6{fill:none;stroke:#1D1D1B;stroke-width:2.6865;stroke-miterlimit:10;}
	.st7{fill:none;stroke:#1D1D1B;stroke-width:2.6865;stroke-linecap:round;stroke-miterlimit:10;}
	.st8{fill:none;stroke:#1D1D1B;stroke-width:3.3447;stroke-linecap:round;stroke-miterlimit:10;}
	.st9{fill:none;stroke:#1D1D1B;stroke-width:3.1502;stroke-linecap:round;stroke-miterlimit:10;}
	.st10{fill:none;stroke:#1D1D1B;stroke-width:2.6747;stroke-linecap:round;stroke-miterlimit:10;}
	.st11{fill:none;}
</style>
<path class="st6" d="M50,13.6H30.2c-7.9,0-14.3,6.4-14.3,14.3v0h48.4v0C64.3,20,57.9,13.6,50,13.6z"/>
<path class="st6" d="M24.3,65.6h31.5c4.6,0,8.4-3.8,8.4-8.4v0H15.9v0C15.9,61.8,19.7,65.6,24.3,65.6z"/>
<path class="st7" d="M28.6,18.5c-2.2,0.8-4.1,2.2-5.4,4.2"/>
<path class="st6" d="M64.3,30.3L64.3,30.3c0,1.5-1.2,2.7-2.7,2.7h0c-1.5,0-2.7-1.2-2.7-2.7v0"/>
<path class="st6" d="M58.9,30.3L58.9,30.3c0,1.5-1.2,2.7-2.7,2.7h0c-1.5,0-2.7-1.2-2.7-2.7v0"/>
<path class="st6" d="M53.5,30.3L53.5,30.3c0,1.5-1.2,2.7-2.7,2.7h0c-1.5,0-2.7-1.2-2.7-2.7v0"/>
<path class="st6" d="M48.1,30.3L48.1,30.3c0,1.5-1.2,2.7-2.7,2.7h0c-1.5,0-2.7-1.2-2.7-2.7v0"/>
<path class="st6" d="M42.8,30.3L42.8,30.3c0,1.5-1.2,2.7-2.7,2.7h0c-1.5,0-2.7-1.2-2.7-2.7v0"/>
<path class="st6" d="M37.4,30.3L37.4,30.3c0,1.5-1.2,2.7-2.7,2.7h0c-1.5,0-2.7-1.2-2.7-2.7v0"/>
<path class="st6" d="M32,30.3L32,30.3c0,1.5-1.2,2.7-2.7,2.7h0c-1.5,0-2.7-1.2-2.7-2.7v0"/>
<path class="st6" d="M26.7,30.3L26.7,30.3c0,1.5-1.2,2.7-2.7,2.7h0c-1.5,0-2.7-1.2-2.7-2.7v0"/>
<path class="st6" d="M21.3,30.3L21.3,30.3c0,1.5-1.2,2.7-2.7,2.7h0c-1.5,0-2.7-1.2-2.7-2.7v0"/>
<line class="st6" x1="15.9" y1="30.3" x2="15.9" y2="27.6"/>
<line class="st6" x1="64.3" y1="27.6" x2="64.3" y2="30.3"/>
<line class="st7" x1="13.2" y1="51.8" x2="65.6" y2="51.8"/>
<path class="st8" d="M60.9,46.4H19.3c-1.8,0-3.3-1.5-3.3-3.3v-1.6c0-1.8,1.5-3.3,3.3-3.3h41.7c1.8,0,3.3,1.5,3.3,3.3v1.6
	C64.3,44.9,62.8,46.4,60.9,46.4z"/>
<rect class="st11" width="80" height="80"/>
</svg>
