<?xml version="1.0" encoding="utf-8"?>
<!-- Generator: Adobe Illustrator 21.0.1, SVG Export Plug-In . SVG Version: 6.00 Build 0)  -->
<svg version="1.1" id="Laag_1" xmlns="http://www.w3.org/2000/svg" xmlns:xlink="http://www.w3.org/1999/xlink" x="0px" y="0px"
	 width="80px" height="80px" viewBox="0 0 80 80" style="enable-background:new 0 0 80 80;" xml:space="preserve">
<style type="text/css">
	.st0{clip-path:url(#SVGID_2_);fill:none;stroke:#1B1B1B;stroke-width:3.2791;stroke-miterlimit:10;}
	.st1{clip-path:url(#SVGID_4_);fill:none;stroke:#1B1B1B;stroke-width:3.2791;stroke-miterlimit:10;}
	.st2{clip-path:url(#SVGID_4_);fill:none;stroke:#1B1B1B;stroke-width:3.2791;stroke-linecap:round;stroke-miterlimit:10;}
	.st3{fill:none;stroke:#1B1B1B;stroke-width:3.2791;stroke-linecap:round;stroke-miterlimit:10;}
	.st4{clip-path:url(#SVGID_8_);fill:none;stroke:#1B1B1B;stroke-width:3.1776;stroke-linecap:round;stroke-miterlimit:10;}
	.st5{clip-path:url(#SVGID_10_);fill:none;stroke:#1B1B1B;stroke-width:3.2604;stroke-linecap:round;stroke-miterlimit:10;}
	.st6{fill:none;stroke:#1D1D1B;stroke-width:2.6865;stroke-miterlimit:10;}
	.st7{fill:none;stroke:#1D1D1B;stroke-width:2.6865;stroke-linecap:round;stroke-miterlimit:10;}
	.st8{fill:none;stroke:#1D1D1B;stroke-width:3.3447;stroke-linecap:round;stroke-miterlimit:10;}
	.st9{fill:none;stroke:#1D1D1B;stroke-width:3.1502;stroke-linecap:round;stroke-miterlimit:10;}
	.st10{fill:none;stroke:#1D1D1B;stroke-width:2.6747;stroke-linecap:round;stroke-miterlimit:10;}
	.st11{fill:none;}
</style>
<g>
	<path class="st7" d="M11.9,29.3c3.9-8.6,15-14.8,28.1-14.8c13.2,0,24.4,6.3,28.2,15.1"/>
	<path class="st9" d="M49.3,29.3c0,0.1,0,0.2,0,0.3"/>
	<path class="st7" d="M30.7,29.3c1.3-8.6,5-14.8,9.3-14.8c4.3,0,8,6.2,9.3,14.8"/>
	<path class="st7" d="M49.9,29.3c2.4-0.8,5.5-1.3,8.9-1.3c3.7,0,7,0.6,9.4,1.6"/>
	<path class="st7" d="M31.1,29.3c2.4-0.8,5.5-1.3,8.9-1.3c3.7,0,7,0.6,9.4,1.6"/>
	<path class="st7" d="M12.3,29.3c2.4-0.8,5.5-1.3,8.9-1.3c3.7,0,7,0.6,9.4,1.6"/>
	<line class="st7" x1="39.9" y1="33.3" x2="39.9" y2="38.7"/>
	<line class="st7" x1="53.4" y1="65.5" x2="26.5" y2="65.5"/>
	<path class="st7" d="M58.7,38.7H52c-5.2,0-9.4,4.2-9.4,9.4v6.7h6.7c5.2,0,9.4-4.2,9.4-9.4V38.7z"/>
	<line class="st7" x1="42.6" y1="54.8" x2="50.7" y2="46.7"/>
	<path class="st7" d="M43,54.4c0,0-3,5.7-3,11.1"/>
	<g>
		<path class="st7" d="M21.1,38.7h6.7c5.2,0,9.4,4.2,9.4,9.4v6.7h-6.7c-5.2,0-9.4-4.2-9.4-9.4V38.7z"/>
		<line class="st7" x1="37.2" y1="54.8" x2="29.2" y2="46.7"/>
		<path class="st7" d="M36.9,54.4c0,0,3,5.7,3,11.1"/>
	</g>
</g>
<rect class="st11" width="80" height="80"/>
</svg>
