<?xml version="1.0" encoding="utf-8"?>
<!-- Generator: Adobe Illustrator 21.0.1, SVG Export Plug-In . SVG Version: 6.00 Build 0)  -->
<svg version="1.1" id="Laag_1" xmlns="http://www.w3.org/2000/svg" xmlns:xlink="http://www.w3.org/1999/xlink" x="0px" y="0px"
	 viewBox="0 0 60 60" style="enable-background:new 0 0 60 60;" xml:space="preserve">
<style type="text/css">
	.st0{clip-path:url(#SVGID_2_);fill:none;stroke:#1B1B1B;stroke-width:3.2791;stroke-miterlimit:10;}
	.st1{clip-path:url(#SVGID_4_);fill:none;stroke:#1B1B1B;stroke-width:3.2791;stroke-miterlimit:10;}
	.st2{clip-path:url(#SVGID_4_);fill:none;stroke:#1B1B1B;stroke-width:3.2791;stroke-linecap:round;stroke-miterlimit:10;}
	.st3{fill:none;stroke:#1B1B1B;stroke-width:3.2791;stroke-linecap:round;stroke-miterlimit:10;}
	.st4{clip-path:url(#SVGID_8_);fill:none;stroke:#1B1B1B;stroke-width:3.1776;stroke-linecap:round;stroke-miterlimit:10;}
	.st5{clip-path:url(#SVGID_10_);fill:none;stroke:#1B1B1B;stroke-width:3.2604;stroke-linecap:round;stroke-miterlimit:10;}
</style>
<g>
	<g>
		<g>
			<polyline class="st3" points="38.6,52.7 2.6,52.7 2.6,11.4 48.4,11.4 48.4,22.8 			"/>
			<line class="st3" x1="9.8" y1="16.5" x2="9.8" y2="4.8"/>
			<line class="st3" x1="41.1" y1="16.5" x2="41.1" y2="4.8"/>
		</g>
		<line class="st3" x1="9.8" y1="26.1" x2="35" y2="26.1"/>
		<line class="st3" x1="9.8" y1="35.2" x2="32.4" y2="35.2"/>
		<line class="st3" x1="9.8" y1="44.4" x2="32.8" y2="44.4"/>
	</g>
	<g id="xx24jf_1_">
		<g>
			<path d="M43.5,58.2c-0.1-0.2-0.3-0.5-0.3-0.7c0-3.9,0-7.9,0-11.8c0.1,0,0.2,0,0.2,0c1,1.1,2.2,1.3,3.4,0.7c1.2-0.6,2.1-0.5,3.3,0
				c1.3,0.6,2.6,0.4,3.6-0.9c0,0.3,0,0.5,0,0.6c0,3.7,0,7.4,0,11.1c0,0.3-0.1,0.6-0.1,0.9c-0.3,0-0.6,0-0.9,0
				c-1.4-1.3-2.8-2.6-4.2-3.9c-0.6,0.6-1.2,1.1-1.8,1.6c-0.8,0.8-1.6,1.5-2.4,2.3C44,58.2,43.8,58.2,43.5,58.2z"/>
			<path d="M57,29.9c0,0.8-0.1,1.6,0,2.3c0,0.4,0.2,0.8,0.5,1.2c0.2,0.4,0.6,0.6,0.9,0.9c0.7,0.7,0.7,1.7,0,2.4
				c-0.3,0.4-0.7,0.7-1.1,1.1c-0.4,0.5-0.6,1-0.4,1.6c0.1,0.6,0.3,1.2,0.3,1.7c0,0.6-0.2,1.2-0.9,1.3c-0.6,0.1-1.1,0.2-1.7,0.3
				c-0.6,0.1-1.1,0.3-1.3,0.9c-0.2,0.5-0.5,0.9-0.8,1.3c-0.6,0.8-1.1,0.9-2,0.5c-0.5-0.2-1-0.5-1.4-0.8c-0.5-0.3-1-0.3-1.5,0
				c-0.4,0.3-0.9,0.6-1.4,0.8c-1,0.5-1.6,0.3-2.1-0.7c-0.2-0.4-0.5-0.8-0.7-1.2c-0.3-0.6-0.8-0.8-1.4-0.8c-0.4,0-0.7,0-1.1-0.1
				c-1-0.1-1.4-0.6-1.3-1.5c0.1-0.7,0.1-1.4,0.2-2.1c0.1-0.6-0.2-1-0.6-1.4c-0.3-0.3-0.6-0.5-0.8-0.8c-0.8-0.8-0.8-1.8,0-2.6
				c0.3-0.3,0.7-0.7,1-1c0.4-0.4,0.6-0.9,0.4-1.5c-0.1-0.3-0.2-0.7-0.2-1c-0.4-1.6,0.2-2.3,1.9-2.4c0.3,0,0.7,0,0.9-0.1
				c0.4-0.2,0.7-0.4,1-0.8c0.3-0.4,0.5-1,0.8-1.4c0.5-0.8,1.1-0.9,2-0.5c0.5,0.3,1,0.5,1.5,0.9c0.4,0.2,0.8,0.2,1.1,0
				c0.5-0.3,1-0.6,1.5-0.9c1-0.5,1.7-0.3,2.2,0.7c0.2,0.5,0.4,0.9,0.7,1.3c0.2,0.3,0.6,0.5,0.9,0.6c0.5,0.1,1,0.1,1.4,0.1
				C56.8,28.5,57.1,28.9,57,29.9z M48.6,31.6c-2.1-0.1-4,1.5-4.1,3.5c-0.1,2.2,1.5,4.2,3.7,4.3c2,0.1,4.1-1.8,4.2-3.8
				C52.5,33.5,50.9,31.7,48.6,31.6z"/>
		</g>
	</g>
	<g>
		<defs>
			<rect id="SVGID_5_" x="1" y="1" width="58" height="58"/>
		</defs>
		<clipPath id="SVGID_2_">
			<use xlink:href="#SVGID_5_"  style="overflow:visible;"/>
		</clipPath>
	</g>
</g>
</svg>
