<?xml version="1.0" encoding="utf-8"?>
<!-- Generator: Adobe Illustrator 21.0.1, SVG Export Plug-In . SVG Version: 6.00 Build 0)  -->
<svg version="1.1" id="Laag_1" xmlns="http://www.w3.org/2000/svg" xmlns:xlink="http://www.w3.org/1999/xlink" x="0px" y="0px"
	 width="80px" height="80px" viewBox="0 0 80 80" style="enable-background:new 0 0 80 80;" xml:space="preserve">
<style type="text/css">
	.st0{clip-path:url(#SVGID_2_);fill:none;stroke:#1B1B1B;stroke-width:3.2791;stroke-miterlimit:10;}
	.st1{clip-path:url(#SVGID_4_);fill:none;stroke:#1B1B1B;stroke-width:3.2791;stroke-miterlimit:10;}
	.st2{clip-path:url(#SVGID_4_);fill:none;stroke:#1B1B1B;stroke-width:3.2791;stroke-linecap:round;stroke-miterlimit:10;}
	.st3{fill:none;stroke:#1B1B1B;stroke-width:3.2791;stroke-linecap:round;stroke-miterlimit:10;}
	.st4{clip-path:url(#SVGID_8_);fill:none;stroke:#1B1B1B;stroke-width:3.1776;stroke-linecap:round;stroke-miterlimit:10;}
	.st5{clip-path:url(#SVGID_10_);fill:none;stroke:#1B1B1B;stroke-width:3.2604;stroke-linecap:round;stroke-miterlimit:10;}
	.st6{fill:none;stroke:#1D1D1B;stroke-width:2.6865;stroke-miterlimit:10;}
	.st7{fill:none;stroke:#1D1D1B;stroke-width:2.6865;stroke-linecap:round;stroke-miterlimit:10;}
	.st8{fill:none;stroke:#1D1D1B;stroke-width:3.3447;stroke-linecap:round;stroke-miterlimit:10;}
	.st9{fill:none;stroke:#1D1D1B;stroke-width:3.1502;stroke-linecap:round;stroke-miterlimit:10;}
	.st10{fill:none;stroke:#1D1D1B;stroke-width:2.6747;stroke-linecap:round;stroke-miterlimit:10;}
	.st11{fill:none;}
</style>
<g>
	<path class="st7" d="M33.8,17.7H20.6c-0.5,0-0.9-0.4-0.9-0.9v-1.9c0-0.5,0.4-0.9,0.9-0.9h13.3c0.5,0,0.9,0.4,0.9,0.9v1.9
		C34.7,17.4,34.3,17.7,33.8,17.7z"/>
	<line class="st7" x1="20.3" y1="21.3" x2="34.1" y2="21.3"/>
	<g>
		<path class="st10" d="M21.1,21.7l-3.9,9.5c-0.3,0.8-0.5,1.7-0.5,2.6v29.5c0,1.5,1.2,2.7,2.7,2.7h9.1"/>
		<line class="st10" x1="32.6" y1="65.9" x2="25.9" y2="65.9"/>
		<path class="st10" d="M33.3,21.7l3.9,9.5c0.1,0.2,0.5,1.4,0.6,1.6"/>
	</g>
	<rect x="38.3" y="27.5" class="st10" width="18.1" height="5.5"/>
	<polyline class="st10" points="56.5,33 63.3,42.4 63.3,65.9 32.6,65.9 32.6,42.4 38.3,33 	"/>
	<polyline class="st10" points="37.6,34.3 42.8,42.4 42.8,65.9 	"/>
	<line class="st10" x1="33.2" y1="42.8" x2="63.3" y2="42.8"/>
</g>
<rect class="st11" width="80" height="80"/>
</svg>
