<?xml version="1.0" encoding="utf-8"?>
<!-- Generator: Adobe Illustrator 23.0.6, SVG Export Plug-In . SVG Version: 6.00 Build 0)  -->
<svg version="1.1" id="Laag_1" xmlns="http://www.w3.org/2000/svg" xmlns:xlink="http://www.w3.org/1999/xlink" x="0px" y="0px"
	 width="250px" height="250px" viewBox="0 0 250 250" style="enable-background:new 0 0 250 250;" xml:space="preserve">
<style type="text/css">
	.st0{fill:none;stroke:#FFFFFF;stroke-width:9;stroke-linecap:round;stroke-linejoin:round;stroke-miterlimit:10;}
	.st1{fill:none;stroke:#FFFFFF;stroke-width:9.9718;stroke-miterlimit:10;}
	.st2{fill:none;stroke:#FFFFFF;stroke-width:9.9718;stroke-linecap:round;stroke-linejoin:round;stroke-miterlimit:10;}
	.st3{fill:none;stroke:#000000;stroke-width:9;stroke-miterlimit:10;}
	.st4{fill:#FFFFFF;}
	.st5{fill:none;stroke:#FFFFFF;stroke-width:4.4269;stroke-linecap:round;stroke-linejoin:round;stroke-miterlimit:10;}
	.st6{fill:none;stroke:#FFFFFF;stroke-width:8.0896;stroke-linecap:round;stroke-linejoin:round;stroke-miterlimit:10;}
	.st7{fill:none;stroke:#FFFFFF;stroke-width:4.0448;stroke-linecap:round;stroke-linejoin:round;stroke-miterlimit:10;}
	.st8{fill:none;stroke:#FFFFFF;stroke-width:9.1008;stroke-miterlimit:10;}
	.st9{fill:none;stroke:#FFFFFF;stroke-width:9.1008;stroke-linejoin:round;stroke-miterlimit:10;}
	.st10{fill:none;stroke:#FFFFFF;stroke-width:9;stroke-miterlimit:10;}
</style>
<g>
	<g>
		<path class="st6" d="M189.5,54.4c-1.6-4.8-18.5-31-20.5-34.2v-0.3c0,0,0,0.1-0.1,0.2c-0.1-0.1-0.1-0.2-0.1-0.2v0.3
			c-2,3.3-19.3,31.3-20.7,36.2c-0.7,2.6-1,4.9-0.9,6.9c0,2.5,0.5,4.6,0.9,6.1c1,3.3,2.8,5.9,6.9,9.2c3.4,2.8,7.9,5,13.8,5.1v0
			c0,0,0.1,0,0.1,0c0,0,0.1,0,0.1,0v0c4.7,0,10.6-2,14-4.6c5.2-3.9,5.8-6.8,6.5-9.1c0.7-2.1,1.3-6,1.3-7.8
			C190.8,60.1,190.1,56.2,189.5,54.4z"/>
		<path class="st7" d="M174.4,48.7c0,0,8.2,13.6,1,23.2"/>
	</g>
	<path class="st8" d="M6,136.3c0,0-1.9,49.6,22.4,75.9c0,0,2.9,1.9,11.7,2.9s11.7-9.7,11.7-15.6s0-55.4,0-55.4s-1-7.8-12.6-7.8
		S6,136.3,6,136.3z"/>
	<path class="st8" d="M52.8,205.5c0,0,54.3,18.3,66,21.2s28.2,6.8,45.7-1.9s73.9-38.9,73.9-38.9s7.8-5.8,4.9-15.6
		s-64.2,14.6-64.2,14.6s3.9-12.6-3.9-16.5c-7.8-3.9-33.1-1.9-40.8-4.9c-7.8-2.9-17.5-14.6-36-16.5c-18.5-1.9-45.7,0-45.7,0
		L52.8,205.5z"/>
	<path class="st8" d="M94.5,146c0,0,6.8-8.8,17.5-10.7c10.7-1.9,13.6,6.8,13.6,6.8s13.6-19.5,31.1-20.4c17.5-1,37,16.5,37,16.5
		l-3.9-6.8c0,0,20.4-8.8,22.4,4.9c1.9,13.6,4.9,12.6,4.9,12.6s12.6-1.9,17.5,4.9c4.9,6.8,6.8,14.8,6.8,14.8"/>
	<polyline class="st9" points="179.2,184.9 173.3,189.8 116.9,189.8 	"/>
	<circle class="st8" cx="205.1" cy="102.9" r="10.1"/>
</g>
</svg>
