<?xml version="1.0" encoding="utf-8"?>
<!-- Generator: Adobe Illustrator 23.0.6, SVG Export Plug-In . SVG Version: 6.00 Build 0)  -->
<svg version="1.1" id="Laag_1" xmlns="http://www.w3.org/2000/svg" xmlns:xlink="http://www.w3.org/1999/xlink" x="0px" y="0px"
	 width="250px" height="250px" viewBox="0 0 250 250" style="enable-background:new 0 0 250 250;" xml:space="preserve">
<style type="text/css">
	.st0{fill:none;stroke:#FFFFFF;stroke-width:9.9718;stroke-miterlimit:10;}
	.st1{fill:none;stroke:#FFFFFF;stroke-width:9.9718;stroke-linecap:round;stroke-linejoin:round;stroke-miterlimit:10;}
	.st2{fill:none;stroke:#FFFFFF;stroke-width:9;stroke-miterlimit:10;}
	.st3{fill:none;stroke:#FFFFFF;stroke-width:8.0896;stroke-linecap:round;stroke-linejoin:round;stroke-miterlimit:10;}
	.st4{fill:none;stroke:#FFFFFF;stroke-width:4.0448;stroke-linecap:round;stroke-linejoin:round;stroke-miterlimit:10;}
	.st5{fill:none;stroke:#FFFFFF;stroke-width:9.1008;stroke-miterlimit:10;}
	.st6{fill:none;stroke:#FFFFFF;stroke-width:9.1008;stroke-linejoin:round;stroke-miterlimit:10;}
	.st7{fill:none;stroke:#FFFFFF;stroke-width:7;stroke-miterlimit:10;}
	.st8{fill:none;stroke:#FFFFFF;stroke-width:6;stroke-linecap:round;stroke-linejoin:round;stroke-miterlimit:10;}
	.st9{fill:none;stroke:#FFFFFF;stroke-width:4.79;stroke-linejoin:round;stroke-miterlimit:10;}
	.st10{fill:none;stroke:#FFFFFF;stroke-width:4.79;stroke-linecap:round;stroke-linejoin:round;stroke-miterlimit:10;}
	.st11{fill:none;stroke:#FFFFFF;stroke-width:4.2862;stroke-linecap:round;stroke-linejoin:round;stroke-miterlimit:10;}
</style>
<g>
	<g>
		<rect x="5" y="217.3" class="st2" width="240" height="14.3"/>
		<rect x="5" y="106.5" class="st2" width="240" height="14.3"/>
		<rect x="226.3" y="121.3" class="st2" width="12.8" height="96"/>
		<rect x="10.9" y="121.3" class="st2" width="12.8" height="96"/>
		<path class="st2" d="M90.2,187.4h68.4c0.8,0,1.5,0.7,1.5,1.5v14c0,0.8-0.7,1.5-1.5,1.5H90.2c-0.8,0-1.5-0.7-1.5-1.5v-14
			C88.7,188.1,89.4,187.4,90.2,187.4z"/>
	</g>
	<line class="st2" x1="226.5" y1="121.5" x2="226.5" y2="108.5"/>
	<line class="st2" x1="226.3" y1="229.5" x2="226.3" y2="217.5"/>
	<line class="st2" x1="23.7" y1="229.5" x2="23.7" y2="219.5"/>
	<line class="st2" x1="23.5" y1="121.5" x2="23.5" y2="108.5"/>
	<line class="st2" x1="180.5" y1="216.5" x2="180.5" y2="122.7"/>
	<line class="st2" x1="68.5" y1="217.5" x2="68.5" y2="121.7"/>
	<rect x="45.2" y="12" class="st7" width="10" height="18"/>
	<rect x="38.2" y="39.5" class="st7" width="24" height="11"/>
	<rect x="120.2" y="12" class="st7" width="10" height="18"/>
	<rect x="113.2" y="39.5" class="st7" width="24" height="11"/>
	<rect x="195.2" y="12" class="st7" width="10" height="18"/>
	<rect x="188.2" y="39.5" class="st7" width="24" height="11"/>
	<line class="st8" x1="40.5" y1="62.5" x2="23" y2="80"/>
	<line class="st8" x1="50.5" y1="62.5" x2="50.5" y2="81.5"/>
	<line class="st8" x1="61.5" y1="62.5" x2="78.5" y2="79.5"/>
	<line class="st8" x1="115" y1="63" x2="97.5" y2="80.5"/>
	<line class="st8" x1="125" y1="63" x2="125" y2="82"/>
	<line class="st8" x1="136" y1="63" x2="153" y2="80"/>
	<line class="st8" x1="190" y1="63" x2="172.5" y2="80.5"/>
	<line class="st8" x1="200" y1="63" x2="200" y2="82"/>
	<line class="st8" x1="211" y1="63" x2="228" y2="80"/>
</g>
</svg>
