<?xml version="1.0" encoding="utf-8"?>
<!-- Generator: Adobe Illustrator 19.2.1, SVG Export Plug-In . SVG Version: 6.00 Build 0)  -->
<svg version="1.1" id="Layer_1" xmlns="http://www.w3.org/2000/svg" xmlns:xlink="http://www.w3.org/1999/xlink" x="0px" y="0px"
	 width="178px" height="44px" viewBox="0 0 178 44" style="enable-background:new 0 0 178 44;" xml:space="preserve">
<style type="text/css">
	.st0{fill:#1D1D1B;}
	.st1{fill:#008ACB;}
	.st2{fill:#FFFFFF;}
</style>
<g>
	<path class="st0" d="M69.8,8.5l-0.9,5.4c-0.1,0.4-0.2,0.7-0.9,0.7h-7.1c-0.9,0-1.2,0.2-1.3,1.1l-0.4,1.9h8.3c0.4,0,0.7,0.2,0.6,0.7
		l-0.9,5c-0.1,0.4-0.5,0.7-0.9,0.7H58l-0.3,1.7c-0.1,0.6-0.1,0.7-0.1,0.9c0,0.5,0.3,0.7,1,0.7h7.1c0.4,0,0.6,0.2,0.6,0.7l-0.9,5.4
		c-0.1,0.4-0.2,0.6-0.9,0.7c-1.5,0.2-4.1,0.4-7.2,0.4c-4.4,0-8.3-1.5-8.3-6.4c0-0.6,0-1.2,0.2-2l1.9-10.5c1.4-8,6.5-8.3,11-8.3
		c3.1,0,5.6,0.2,7.1,0.4C69.6,7.9,69.9,8.1,69.8,8.5"/>
	<path class="st0" d="M81.7,7.3l-4.6,26.1c-0.1,0.4-0.2,0.8-0.9,0.8h-6.4c-0.4,0-0.8-0.2-0.7-0.8l4.6-26.1c0.1-0.4,0.3-0.7,0.9-0.7
		h6.4C81.5,6.5,81.8,6.7,81.7,7.3"/>
	<path class="st0" d="M102.2,22.3l-0.5,2.8c-1.1,6.3-4.8,9.4-11.4,9.4c-0.4,0-1.4-0.1-1.9-0.2l-1,5.8c-0.1,0.4-0.4,0.7-0.8,0.7h-6.4
		c-0.4,0-0.8-0.1-0.7-0.7L83.9,15c0.1-0.6,0.4-1,1.7-1.2c1.7-0.3,4.9-0.9,8.5-0.9c5.2,0,8.3,3,8.3,7.5
		C102.4,21,102.3,21.6,102.2,22.3 M92.9,19.4c-0.9,0-1.2,0-1.9,0.1l-1.5,8.4c0.6,0,1.1,0.1,1.9,0.1c1.5,0,2-0.9,2.4-2.9l0.5-2.8
		c0.1-0.5,0.1-1,0.1-1.3C94.4,19.9,94,19.4,92.9,19.4"/>
	<path class="st0" d="M118.9,12.9c0.6,0,0.9,0.2,0.7,0.7l-0.9,5c-0.1,0.4-0.2,0.7-0.8,0.7h-0.2c-2.2,0-3.3,0.2-4.1,0.6l-2.4,13.5
		c-0.1,0.4-0.2,0.8-0.9,0.8h-6.4c-0.4,0-0.8-0.1-0.7-0.8l3.4-19.5c0.1-0.4,0.2-0.7,0.8-0.7h5.6c0.4,0,0.7,0.2,0.6,0.7l-0.2,1
		c1.4-1.7,3.4-2.1,5.1-2.1H118.9z"/>
	<path class="st0" d="M139.1,22.8l-0.4,2.2c-0.1,0.4-0.5,0.7-0.9,0.7h-10.7c0,0.3-0.1,0.6-0.1,0.8c0,1.1,0.7,1.5,2.7,1.5
		c1.5,0,5.4-0.2,6.7-0.2c0.6,0,0.8,0.1,0.7,0.6l-0.7,3.7c-0.1,0.6-0.3,0.8-0.9,1c-2,0.7-5.5,1.3-8.4,1.3c-4.5,0-8.1-2.5-8.1-7.4
		c0-0.7,0.1-1.4,0.2-2.1l0.4-2.2c1.3-7.4,5.6-10,11.6-10c5.6,0,7.9,3.3,7.9,7.6C139.3,21.2,139.2,22,139.1,22.8 M130.3,18.8
		c-1.5,0-2.1,1-2.5,2.9h4c0.1-0.5,0.1-0.9,0.1-1.2C132,19.5,131.5,18.8,130.3,18.8"/>
	<path class="st0" d="M158.8,14.6l-0.8,4.6c-0.1,0.5-0.1,0.9-0.9,0.7c-1.1-0.2-4.8-0.6-6.2-0.6c-0.3,0-0.8,0-0.8,0.4
		c0,0.3,0.1,0.4,0.8,0.8l2.8,1.5c3.2,1.7,3.6,3.5,3.6,5.4c0,5.1-4.2,7.1-10.4,7.1c-3.1,0-5.1-0.5-6.5-0.9c-0.5-0.2-0.6-0.4-0.5-0.8
		l0.8-4.4c0.1-0.6,0.3-0.9,1.1-0.8c2.3,0.4,4.8,0.7,6,0.7c0.6,0,1.4,0,1.4-0.8c0-0.2-0.1-0.4-0.7-0.7l-3.2-1.7
		c-2.1-1.2-3.2-2.8-3.2-5c0-5.7,4.6-7.1,9.5-7.1c2.6,0,5.1,0.5,6.6,1C158.7,14,158.9,14.1,158.8,14.6"/>
	<path class="st0" d="M178,14.6l-0.8,4.6c-0.1,0.5-0.1,0.9-0.9,0.7c-1.1-0.2-4.8-0.6-6.2-0.6c-0.3,0-0.8,0-0.8,0.4
		c0,0.3,0.1,0.4,0.8,0.8l2.8,1.5c3.2,1.7,3.6,3.5,3.6,5.4c0,5.1-4.2,7.1-10.4,7.1c-3.1,0-5.1-0.5-6.5-0.9c-0.5-0.2-0.6-0.4-0.5-0.8
		l0.8-4.4c0.1-0.6,0.3-0.9,1.1-0.8c2.3,0.4,4.8,0.7,6,0.7c0.6,0,1.4,0,1.4-0.8c0-0.2-0.1-0.4-0.7-0.7l-3.2-1.7
		c-2.1-1.2-3.2-2.8-3.2-5c0-5.7,4.6-7.1,9.5-7.1c2.6,0,5.1,0.5,6.6,1C177.9,14,178.1,14.1,178,14.6"/>
	<path class="st1" d="M43.4,21.7c0,12-9.7,21.7-21.7,21.7S0,33.7,0,21.7C0,9.7,9.7,0,21.7,0S43.4,9.7,43.4,21.7"/>
	<path class="st2" d="M18.5,6.1c-1.5,0-2.6,1.2-2.6,2.6s1.2,2.6,2.6,2.6c1.5,0,2.6-1.2,2.6-2.6S19.9,6.1,18.5,6.1"/>
	<path class="st2" d="M25,6.1c-1.5,0-2.6,1.2-2.6,2.6s1.2,2.6,2.6,2.6c1.5,0,2.6-1.2,2.6-2.6S26.4,6.1,25,6.1"/>
	<path class="st2" d="M11.9,12.6c-1.5,0-2.6,1.2-2.6,2.6s1.2,2.6,2.6,2.6s2.6-1.2,2.6-2.6S13.4,12.6,11.9,12.6"/>
	<path class="st2" d="M25,19.1c-1.5,0-2.6,1.2-2.6,2.6c0,1.5,1.2,2.6,2.6,2.6c1.5,0,2.6-1.2,2.6-2.6C27.6,20.3,26.4,19.1,25,19.1"/>
	<path class="st2" d="M11.9,19.1c-0.6,0-1.2,0.2-1.6,0.6c-2.2,1.5-4.9,2.1-4.9,2.1s2.7,0.5,4.9,2.1c0.5,0.3,1,0.6,1.6,0.6
		c1.5,0,2.6-1.2,2.6-2.6C14.6,20.3,13.4,19.1,11.9,19.1"/>
	<path class="st2" d="M31.5,12.6c-1.5,0-2.6,1.2-2.6,2.6s1.2,2.6,2.6,2.6c1.5,0,2.6-1.2,2.6-2.6S32.9,12.6,31.5,12.6"/>
	<path class="st2" d="M18.5,19.1c-1.5,0-2.6,1.2-2.6,2.6c0,1.5,1.2,2.6,2.6,2.6c1.5,0,2.6-1.2,2.6-2.6
		C21.1,20.3,19.9,19.1,18.5,19.1"/>
	<path class="st2" d="M31.5,19.1c-1.5,0-2.6,1.2-2.6,2.6c0,1.5,1.2,2.6,2.6,2.6c1.5,0,2.6-1.2,2.6-2.6
		C34.1,20.3,32.9,19.1,31.5,19.1"/>
	<path class="st2" d="M11.9,25.6c-1.5,0-2.6,1.2-2.6,2.6c0,1.5,1.2,2.6,2.6,2.6s2.6-1.2,2.6-2.6C14.6,26.8,13.4,25.6,11.9,25.6"/>
	<path class="st2" d="M25,32.1c-1.5,0-2.6,1.2-2.6,2.6s1.2,2.6,2.6,2.6c1.5,0,2.6-1.2,2.6-2.6S26.4,32.1,25,32.1"/>
	<path class="st2" d="M18.5,32.1c-1.5,0-2.6,1.2-2.6,2.6c0,1.5,1.2,2.6,2.6,2.6c1.5,0,2.6-1.2,2.6-2.6
		C21.1,33.3,19.9,32.1,18.5,32.1"/>
</g>
</svg>
