<?xml version="1.0" encoding="utf-8"?>
<!-- Generator: Adobe Illustrator 23.0.3, SVG Export Plug-In . SVG Version: 6.00 Build 0)  -->
<svg version="1.1" id="Laag_1" xmlns="http://www.w3.org/2000/svg" xmlns:xlink="http://www.w3.org/1999/xlink" x="0px" y="0px"
	 width="28px" height="28px" viewBox="0 0 28 28" style="enable-background:new 0 0 28 28;" xml:space="preserve">
<style type="text/css">
	.st0{fill:#FFFFFF;}
	.st1{fill:#323232;}
</style>
<path id="twitter-4-icon" class="st0" d="M14,0C6.3,0,0,6.3,0,14c0,7.7,6.3,14,14,14c7.7,0,14-6.3,14-14C28,6.3,21.7,0,14,0z
	 M21,11.6c0.2,4.6-3.2,9.7-9.2,9.7c-1.8,0-3.5-0.5-5-1.5c1.7,0.2,3.4-0.3,4.8-1.3c-1.4,0-2.6-1-3-2.3c0.5,0.1,1,0.1,1.5-0.1
	c-1.6-0.3-2.6-1.7-2.6-3.2c0.4,0.2,0.9,0.4,1.5,0.4c-1.4-1-1.9-2.9-1-4.3c1.6,2,4,3.3,6.7,3.4c-0.5-2,1.1-4,3.2-4
	c0.9,0,1.8,0.4,2.4,1c0.7-0.1,1.4-0.4,2.1-0.8c-0.2,0.8-0.8,1.4-1.4,1.8c0.7-0.1,1.3-0.3,1.9-0.5C22.2,10.6,21.7,11.1,21,11.6z"/>
<path id="twitter-4-icon_1_" class="st1" d="M21,11.6c0.2,4.6-3.2,9.7-9.2,9.7c-1.8,0-3.5-0.5-5-1.5c1.7,0.2,3.4-0.3,4.8-1.3
	c-1.4,0-2.6-1-3-2.3c0.5,0.1,1,0.1,1.5-0.1c-1.6-0.3-2.6-1.7-2.6-3.2c0.4,0.2,0.9,0.4,1.5,0.4c-1.4-1-1.9-2.9-1-4.3
	c1.6,2,4,3.3,6.7,3.4c-0.5-2,1.1-4,3.2-4c0.9,0,1.8,0.4,2.4,1c0.7-0.1,1.4-0.4,2.1-0.8c-0.2,0.8-0.8,1.4-1.4,1.8
	c0.7-0.1,1.3-0.3,1.9-0.5C22.2,10.6,21.7,11.1,21,11.6z"/>
</svg>
