<?xml version="1.0" encoding="utf-8"?>
<!-- Generator: Adobe Illustrator 23.0.3, SVG Export Plug-In . SVG Version: 6.00 Build 0)  -->
<svg version="1.1" id="Laag_1" xmlns="http://www.w3.org/2000/svg" xmlns:xlink="http://www.w3.org/1999/xlink" x="0px" y="0px"
	 width="28px" height="28px" viewBox="0 0 28 28" style="enable-background:new 0 0 28 28;" xml:space="preserve">
<style type="text/css">
	.st0{fill:#FFFFFF;}
	.st1{fill:#323232;}
</style>
<g>
	<polygon class="st0" points="12.5,16.4 16.5,13.8 12.5,11.1 	"/>
	<path class="st0" d="M14,0C6.3,0,0,6.3,0,14c0,7.7,6.3,14,14,14c7.7,0,14-6.3,14-14C28,6.3,21.7,0,14,0z M21.2,16.5
		c0,1.3-1.1,2.4-2.4,2.4H9.3c-1.3,0-2.4-1.1-2.4-2.4v-5.1C6.8,10.1,7.9,9,9.3,9h9.5c1.3,0,2.4,1.1,2.4,2.4V16.5z"/>
</g>
<path class="st1" d="M18.7,9H9.3c-1.3,0-2.4,1.1-2.4,2.4v5.1c0,1.3,1.1,2.4,2.4,2.4h9.5c1.3,0,2.4-1.1,2.4-2.4v-5.1
	C21.2,10.1,20.1,9,18.7,9z M12.5,16.4v-5.3l4,2.7L12.5,16.4z"/>
</svg>
